<?xml version="1.0" encoding="utf-8"?>
<!-- Generator: Adobe Illustrator 19.0.0, SVG Export Plug-In . SVG Version: 6.00 Build 0)  -->
<svg version="1.1" id="Layer_1" xmlns="http://www.w3.org/2000/svg" xmlns:xlink="http://www.w3.org/1999/xlink" x="0px" y="0px"
	 viewBox="0 0 814 206" style="enable-background:new 0 0 814 206;" xml:space="preserve">
<style type="text/css">
	.st0{fill:#767676;}
</style>
<path id="XMLID_2_" class="st0" d="M42.4,153.3H1V84.5h41.5v5.9H7.5v24.7h33.3v5.8H7.5v26.4h35V153.3z"/>
<path id="XMLID_4_" class="st0" d="M52.6,103.8h5.9v9.3h0.1c2.1-5.9,7.5-9.9,14.4-9.9c7.3,0,12.5,4.2,14.3,10.5h0.1
	c2.3-6.2,8.2-10.5,15.6-10.5c9.7,0,16,6.5,16,16.5v33.7h-6.3v-32.2c0-7.7-4.3-12.3-11.5-12.3c-7.4,0-12.4,5.6-12.4,13.6v31h-6.4
	v-32.8c0-7.1-4.5-11.8-11.3-11.8c-7.3,0-12.5,5.9-12.5,14.3v30.2h-6.3C52.6,153.4,52.6,103.8,52.6,103.8z"/>
<path id="XMLID_6_" class="st0" d="M127.4,128.5c0-15.5,8.9-25.3,22.6-25.3c13.7,0,22.6,9.8,22.6,25.3s-8.9,25.3-22.6,25.3
	C136.2,153.8,127.4,144,127.4,128.5z M166.2,128.5c0-12.3-6.3-19.8-16.2-19.8c-10,0-16.1,7.5-16.1,19.8c0,12.3,6.2,19.8,16.1,19.8
	C159.9,148.3,166.2,140.8,166.2,128.5z"/>
<path id="XMLID_9_" class="st0" d="M187.7,156.4c0,9.6-4.6,13.8-14.3,13.8c-0.1,0-1.4,0-1.5,0v-5.3c0.1,0,1.3,0,1.3,0
	c5.8,0,8.2-2.3,8.2-8.3v-52.8h6.4L187.7,156.4L187.7,156.4z M180.3,89.5c0-2.3,1.9-4.1,4.2-4.1s4.2,1.8,4.2,4.1s-1.9,4.2-4.2,4.2
	C182.2,93.7,180.3,91.9,180.3,89.5z"/>
<path id="XMLID_12_" class="st0" d="M198.4,89.5c0-2.3,1.9-4.1,4.2-4.1s4.2,1.8,4.2,4.1s-1.9,4.2-4.2,4.2
	C200.3,93.7,198.4,91.9,198.4,89.5z M199.4,103.8h6.4v49.5h-6.4V103.8z"/>
<path id="XMLID_15_" class="st0" d="M237.3,153.3V84.5h6.5v68.8H237.3z"/>
<path id="XMLID_17_" class="st0" d="M255.6,103.8h5.9v9.3h0.1c2.7-6.3,8.4-9.9,16.3-9.9c10.9,0,17.5,7.1,17.5,18.3v31.9h-6.3v-30.9
	c0-8.7-4.7-13.7-13.1-13.7c-8.7,0-14.3,6.3-14.3,15.4v29h-6.3L255.6,103.8L255.6,103.8z"/>
<path id="XMLID_19_" class="st0" d="M337.5,103.8h7.9l-22.3,21.4l22.7,28.1h-7.4L318.6,129l-5.5,5.1v19.2h-6.4V84.5h6.4v42.7
	L337.5,103.8z"/>
<path id="XMLID_21_" class="st0" d="M432.3,153.3V96.8H432l-23.9,56.1h-5.6l-23.9-56.1h-0.3v56.5h-6.1V84.5h7.5l25.5,60.2h0.3
	l25.4-60.2h7.6v68.8H432.3z"/>
<path id="XMLID_23_" class="st0" d="M490.8,139.3c-1.5,8.5-9.7,14.6-20.5,14.6c-13.8,0-22.6-9.6-22.6-25.2
	c0-15.4,8.8-25.5,22.2-25.5c13,0,21.5,9.5,21.5,24.2v2.6h-37.1v0.4c0,11.1,6.5,18,16.2,18c7.4,0,12.7-3.7,14-9.1H490.8z M454.3,125
	h30.6c-0.1-9.8-6.2-16.3-15-16.3C461.1,108.7,454.9,115.3,454.3,125z"/>
<path id="XMLID_26_" class="st0" d="M516.7,103.2c10.2,0,17.4,5.9,18,14.5h-6.1c-0.6-5.5-5.1-9.3-12.1-9.3c-6.6,0-11.5,3.4-11.5,8.4
	c0,4,2.9,6.4,9.2,7.9l7.8,1.8c9.9,2.5,13.7,6.1,13.7,13.1c0,8.4-8,14.2-19.2,14.2c-10.7,0-18.4-6.1-19.1-14.6h6.3
	c0.8,5.6,5.6,9.4,13,9.4c7.4,0,12.5-3.3,12.5-8.6c0-4.1-2.5-6.5-9.2-8.1l-8.5-2.1c-8.6-2.1-12.8-6.3-12.8-12.8
	C498.9,108.9,506.4,103.2,516.7,103.2z"/>
<path id="XMLID_29_" class="st0" d="M560.9,103.2c10.2,0,17.4,5.9,18,14.5h-6.1c-0.6-5.5-5.1-9.3-12.1-9.3c-6.6,0-11.5,3.4-11.5,8.4
	c0,4,2.9,6.4,9.2,7.9l7.8,1.8c9.9,2.5,13.7,6.1,13.7,13.1c0,8.4-8,14.2-19.2,14.2c-10.7,0-18.4-6.1-19.1-14.6h6.3
	c0.8,5.6,5.6,9.4,13,9.4c7.4,0,12.5-3.3,12.5-8.6c0-4.1-2.5-6.5-9.2-8.1l-8.5-2.1c-8.6-2.1-12.8-6.3-12.8-12.8
	C543.1,108.9,550.6,103.2,560.9,103.2z"/>
<path id="XMLID_31_" class="st0" d="M628.7,139.3c-1.5,8.5-9.7,14.6-20.5,14.6c-13.8,0-22.6-9.6-22.6-25.2
	c0-15.4,8.8-25.5,22.2-25.5c13,0,21.5,9.5,21.5,24.2v2.6h-37.1v0.4c0,11.1,6.5,18,16.2,18c7.4,0,12.7-3.7,14-9.1H628.7z M592.3,125
	h30.6c-0.1-9.8-6.2-16.3-15-16.3S592.8,115.3,592.3,125z"/>
<path id="XMLID_34_" class="st0" d="M637.7,103.8h6v9.3h0.1c2.7-6.3,8.4-9.9,16.3-9.9c10.9,0,17.5,7.1,17.5,18.3v31.9h-6.3v-30.9
	c0-8.7-4.7-13.7-13.1-13.7c-8.7,0-14.3,6.3-14.3,15.4v29h-6.3V103.8z"/>
<path id="XMLID_36_" class="st0" d="M688.2,157.8h6.6c1.6,4.8,7,8.4,14.1,8.4c9.3,0,15-5.3,15-13.5v-10h-0.1
	c-2.6,6.4-9.1,10.8-16.9,10.8c-12.5,0-20.9-10.1-20.9-25.2s8.5-25.2,21.1-25.2c7.9,0,14.2,4.3,17.1,10.8h0.1v-10.3h6.1v48.7
	c0,11.5-8.5,19.2-21.7,19.2C697.8,171.6,689.6,165.7,688.2,157.8z M723.9,128.4c0-11.6-6.5-19.6-15.9-19.6
	c-9.4,0-15.6,7.9-15.6,19.7c0,11.7,6.3,19.5,15.6,19.5C717.5,147.9,723.9,140,723.9,128.4z"/>
<path id="XMLID_39_" class="st0" d="M781.7,139.3c-1.5,8.5-9.7,14.6-20.5,14.6c-13.8,0-22.6-9.6-22.6-25.2
	c0-15.4,8.8-25.5,22.2-25.5c13,0,21.5,9.5,21.5,24.2v2.6h-37.1v0.4c0,11.1,6.5,18,16.2,18c7.4,0,12.7-3.7,14-9.1H781.7z M745.2,125
	h30.6c-0.1-9.8-6.2-16.3-15-16.3C751.9,108.7,745.7,115.3,745.2,125z"/>
<path id="XMLID_42_" class="st0" d="M790.6,103.8h6v8.8h0.1c1.7-5.8,6.5-9.4,12.5-9.4c1.7,0,3.1,0.3,3.9,0.5v6.2
	c-0.8-0.3-2.6-0.7-4.7-0.7c-7.1,0-11.5,5.4-11.5,13.5v30.6h-6.3V103.8z"/>
<g id="XMLID_1_">
</g>
<g id="XMLID_27_">
</g>
<g id="XMLID_44_">
</g>
<g id="XMLID_45_">
</g>
<g id="XMLID_46_">
</g>
<g id="XMLID_47_">
</g>
</svg>
