<?xml version="1.0" encoding="utf-8"?>
<!-- Generator: Adobe Illustrator 19.0.0, SVG Export Plug-In . SVG Version: 6.00 Build 0)  -->
<svg version="1.2" baseProfile="tiny" id="Layer_1" xmlns="http://www.w3.org/2000/svg" xmlns:xlink="http://www.w3.org/1999/xlink"
	 x="0px" y="0px" viewBox="0 0 814 206" xml:space="preserve">
<g id="XMLID_2_">
	<path id="XMLID_3_" fill="#767676" d="M44.5,152.9c-3.6,1.4-7.3,2.1-10.9,2.1c-4.7,0-8.8-0.9-12.5-2.6c-3.7-1.7-6.8-4-9.4-7
		c-2.6-2.9-4.5-6.3-5.9-10.1c-1.3-3.8-2-7.7-2-11.8c0-4.6,0.6-8.9,1.9-13c1.3-4.1,3.1-7.7,5.6-10.8c2.5-3.1,5.6-5.6,9.3-7.4
		c3.7-1.8,8-2.8,13-2.8c3.4,0,6.6,0.4,9.6,1.2c3,0.8,5.7,2,8.1,3.7c2.4,1.7,4.3,3.8,6,6.4c1.6,2.6,2.7,5.7,3.3,9.4h-8.3
		c-0.4-2.4-1.2-4.4-2.3-6.2c-1.1-1.7-2.5-3.1-4.1-4.2c-1.6-1.1-3.5-1.9-5.6-2.5c-2.1-0.6-4.3-0.8-6.6-0.8c-3.8,0-7,0.8-9.8,2.3
		c-2.7,1.5-4.9,3.5-6.7,6c-1.7,2.5-3,5.3-3.8,8.5c-0.8,3.2-1.2,6.4-1.2,9.8c0,3.3,0.5,6.4,1.4,9.4c0.9,3,2.3,5.7,4.1,8
		c1.8,2.3,4,4.1,6.7,5.5c2.7,1.4,5.7,2.1,9.2,2.1c3.3,0,6.2-0.5,8.7-1.6c2.5-1.1,4.6-2.5,6.3-4.3c1.7-1.8,3-4,3.9-6.5
		c0.9-2.5,1.3-5.1,1.1-8h-20v-7H61v32.9h-5.3l-2.2-7.8C51.1,149.1,48.1,151.5,44.5,152.9z"/>
	<path id="XMLID_5_" fill="#767676" d="M78.8,108.4v9.5H79c1.8-3.7,4-6.4,6.7-8.1s6-2.6,10-2.5v7.9c-3,0-5.5,0.4-7.6,1.2
		c-2.1,0.8-3.8,2-5.1,3.6c-1.3,1.6-2.2,3.5-2.8,5.7c-0.6,2.2-0.9,4.8-0.9,7.7v20.1h-7.4v-45.3H78.8z"/>
	<path id="XMLID_7_" fill="#767676" d="M141.3,153.5c-1.3,0.8-3.1,1.1-5.3,1.1c-1.9,0-3.5-0.5-4.6-1.6c-1.1-1.1-1.7-2.8-1.7-5.3
		c-2,2.5-4.4,4.2-7.1,5.3c-2.7,1.1-5.6,1.6-8.8,1.6c-2,0-4-0.2-5.8-0.7c-1.8-0.5-3.4-1.2-4.8-2.2c-1.3-1-2.4-2.3-3.2-3.9
		c-0.8-1.6-1.2-3.5-1.2-5.8c0-2.6,0.4-4.7,1.3-6.3c0.9-1.6,2-3,3.5-4c1.4-1,3.1-1.8,4.9-2.3c1.8-0.5,3.7-1,5.6-1.3
		c2-0.4,4-0.7,5.8-0.9c1.8-0.2,3.5-0.5,4.9-0.9c1.4-0.4,2.5-0.9,3.3-1.7c0.8-0.7,1.2-1.8,1.2-3.2c0-1.6-0.3-2.9-0.9-3.9
		c-0.6-1-1.4-1.8-2.4-2.3c-1-0.5-2-0.9-3.2-1c-1.2-0.2-2.4-0.3-3.5-0.3c-3.2,0-5.8,0.6-7.9,1.8c-2.1,1.2-3.2,3.5-3.4,6.8h-7.4
		c0.1-2.8,0.7-5.2,1.8-7.1c1.1-1.9,2.5-3.5,4.2-4.7c1.8-1.2,3.7-2.1,6-2.6c2.2-0.5,4.7-0.8,7.2-0.8c2,0,4.1,0.1,6.1,0.4
		c2,0.3,3.8,0.9,5.5,1.8c1.6,0.9,2.9,2.2,3.9,3.8c1,1.6,1.5,3.8,1.5,6.4V143c0,1.7,0.1,3,0.3,3.8c0.2,0.8,0.9,1.2,2.1,1.2
		c0.6,0,1.4-0.1,2.3-0.3V153.5z M129.2,130.3c-0.9,0.7-2.2,1.2-3.7,1.5c-1.5,0.3-3.1,0.6-4.8,0.8s-3.3,0.4-5,0.7
		c-1.7,0.3-3.2,0.7-4.6,1.3c-1.3,0.6-2.4,1.4-3.3,2.5c-0.8,1.1-1.3,2.5-1.3,4.4c0,1.2,0.2,2.2,0.7,3.1c0.5,0.8,1.1,1.5,1.9,2
		c0.8,0.5,1.7,0.9,2.8,1.1s2.2,0.3,3.3,0.3c2.5,0,4.6-0.3,6.3-1c1.8-0.7,3.2-1.5,4.3-2.5c1.1-1,1.9-2.1,2.5-3.3
		c0.5-1.2,0.8-2.3,0.8-3.4V130.3z"/>
	<path id="XMLID_10_" fill="#767676" d="M155.2,108.4v7.2h0.2c3.1-5.5,8-8.2,14.7-8.2c3,0,5.5,0.4,7.4,1.2c2,0.8,3.6,2,4.8,3.4
		c1.2,1.5,2.1,3.2,2.6,5.2c0.5,2,0.7,4.2,0.7,6.7v29.8h-7.4V123c0-2.8-0.8-5-2.5-6.7c-1.6-1.6-3.9-2.5-6.7-2.5
		c-2.3,0-4.2,0.3-5.9,1.1c-1.7,0.7-3.1,1.7-4.2,3c-1.1,1.3-1.9,2.8-2.5,4.5c-0.6,1.7-0.8,3.6-0.8,5.6v25.6h-7.4v-45.3H155.2z"/>
	<path id="XMLID_12_" fill="#767676" d="M229.9,153.7v-6.1h-0.2c-1.2,2.5-3.2,4.3-5.8,5.4c-2.6,1.1-5.5,1.7-8.7,1.7
		c-3.5,0-6.6-0.6-9.1-1.9c-2.6-1.3-4.8-3-6.5-5.2c-1.7-2.2-3-4.7-3.9-7.5c-0.9-2.9-1.3-5.9-1.3-9.1c0-3.2,0.4-6.2,1.3-9.1
		c0.8-2.9,2.1-5.4,3.9-7.5c1.7-2.1,3.9-3.8,6.5-5.1c2.6-1.3,5.6-1.9,9.1-1.9c1.2,0,2.4,0.1,3.8,0.4c1.3,0.2,2.7,0.6,4,1.2
		c1.3,0.6,2.6,1.3,3.8,2.2c1.2,0.9,2.2,2,3,3.4h0.2V91.2h7.4v62.5H229.9z M203.1,137.6c0.6,2,1.4,3.8,2.5,5.4
		c1.1,1.6,2.6,2.8,4.4,3.8c1.8,0.9,3.9,1.4,6.3,1.4c2.5,0,4.6-0.5,6.4-1.5c1.8-1,3.2-2.3,4.3-3.9c1.1-1.6,1.9-3.4,2.4-5.5
		c0.5-2,0.7-4.1,0.7-6.2c0-2.2-0.3-4.4-0.8-6.4c-0.5-2.1-1.4-3.9-2.5-5.5c-1.1-1.6-2.6-2.8-4.4-3.8c-1.8-1-4-1.4-6.6-1.4
		c-2.5,0-4.6,0.5-6.4,1.5c-1.8,1-3.2,2.3-4.2,3.9c-1.1,1.6-1.8,3.5-2.3,5.6c-0.5,2.1-0.7,4.3-0.7,6.5
		C202.3,133.5,202.6,135.6,203.1,137.6z"/>
	<path id="XMLID_15_" fill="#767676" d="M317.5,91.2v7h-34.8V118h32.5v7h-32.5v21.6h35.1v7h-43.4V91.2H317.5z"/>
	<path id="XMLID_17_" fill="#767676" d="M323,108.4h9.5l10.9,15.8l11.3-15.8h8.9L348,129.2l17.5,24.4H356l-12.6-18.7l-12.6,18.7h-9
		l17-23.8L323,108.4z"/>
	<path id="XMLID_19_" fill="#767676" d="M399,116.3c-1.9-1.6-4.4-2.4-7.5-2.4c-2.7,0-4.9,0.5-6.7,1.5c-1.8,1-3.3,2.3-4.3,3.9
		c-1.1,1.6-1.9,3.5-2.3,5.6c-0.5,2.1-0.7,4.3-0.7,6.6c0,2.1,0.2,4.1,0.7,6.1c0.5,2,1.3,3.8,2.3,5.3c1.1,1.5,2.4,2.8,4.1,3.7
		c1.7,0.9,3.7,1.4,6,1.4c3.7,0,6.5-1,8.6-2.9c2.1-1.9,3.3-4.6,3.8-8.1h7.6c-0.8,5.6-2.9,9.9-6.3,13c-3.4,3-7.9,4.6-13.7,4.6
		c-3.4,0-6.5-0.6-9.1-1.7c-2.7-1.1-4.9-2.7-6.7-4.7c-1.8-2-3.1-4.5-4-7.3c-0.9-2.8-1.4-5.9-1.4-9.3c0-3.4,0.4-6.5,1.3-9.5
		c0.9-2.9,2.2-5.5,4-7.7c1.8-2.2,4-3.9,6.7-5.2c2.7-1.3,5.8-1.9,9.4-1.9c2.6,0,5,0.3,7.2,0.9c2.2,0.6,4.2,1.6,6,2.8
		c1.7,1.3,3.1,2.9,4.2,4.9c1.1,2,1.8,4.3,2.1,7h-7.7C402.1,120.1,400.8,117.8,399,116.3z"/>
	<path id="XMLID_21_" fill="#767676" d="M426.4,91.2V115h0.2c0.6-1.4,1.4-2.6,2.5-3.5c1-1,2.2-1.8,3.5-2.4c1.3-0.6,2.7-1.1,4.1-1.4
		c1.4-0.3,2.8-0.4,4.2-0.4c3,0,5.5,0.4,7.4,1.2c2,0.8,3.6,2,4.8,3.4c1.2,1.5,2.1,3.2,2.6,5.2c0.5,2,0.7,4.2,0.7,6.7v29.8H449V123
		c0-2.8-0.8-5-2.5-6.7c-1.6-1.6-3.9-2.5-6.7-2.5c-2.3,0-4.2,0.3-5.9,1.1c-1.7,0.7-3,1.7-4.2,3c-1.1,1.3-1.9,2.8-2.5,4.5
		c-0.6,1.7-0.8,3.6-0.8,5.6v25.6h-7.4V91.2H426.4z"/>
	<path id="XMLID_23_" fill="#767676" d="M507.7,153.5c-1.3,0.8-3.1,1.1-5.3,1.1c-1.9,0-3.5-0.5-4.6-1.6s-1.7-2.8-1.7-5.3
		c-2,2.5-4.4,4.2-7.1,5.3c-2.7,1.1-5.6,1.6-8.8,1.6c-2,0-4-0.2-5.8-0.7c-1.8-0.5-3.4-1.2-4.8-2.2c-1.3-1-2.4-2.3-3.2-3.9
		c-0.8-1.6-1.2-3.5-1.2-5.8c0-2.6,0.4-4.7,1.3-6.3c0.9-1.6,2-3,3.5-4c1.4-1,3.1-1.8,4.9-2.3c1.8-0.5,3.7-1,5.6-1.3
		c2-0.4,4-0.7,5.8-0.9c1.8-0.2,3.5-0.5,4.9-0.9c1.4-0.4,2.5-0.9,3.3-1.7c0.8-0.7,1.2-1.8,1.2-3.2c0-1.6-0.3-2.9-0.9-3.9
		c-0.6-1-1.4-1.8-2.4-2.3c-1-0.5-2-0.9-3.2-1c-1.2-0.2-2.4-0.3-3.5-0.3c-3.2,0-5.8,0.6-7.9,1.8c-2.1,1.2-3.2,3.5-3.4,6.8h-7.4
		c0.1-2.8,0.7-5.2,1.8-7.1c1.1-1.9,2.5-3.5,4.2-4.7c1.8-1.2,3.7-2.1,6-2.6c2.2-0.5,4.7-0.8,7.2-0.8c2,0,4.1,0.1,6.1,0.4
		c2,0.3,3.8,0.9,5.5,1.8c1.6,0.9,2.9,2.2,3.9,3.8c1,1.6,1.5,3.8,1.5,6.4V143c0,1.7,0.1,3,0.3,3.8c0.2,0.8,0.9,1.2,2.1,1.2
		c0.6,0,1.4-0.1,2.3-0.3V153.5z M495.6,130.3c-0.9,0.7-2.2,1.2-3.7,1.5c-1.5,0.3-3.1,0.6-4.8,0.8s-3.3,0.4-5,0.7
		c-1.7,0.3-3.2,0.7-4.6,1.3c-1.3,0.6-2.4,1.4-3.3,2.5c-0.8,1.1-1.3,2.5-1.3,4.4c0,1.2,0.2,2.2,0.7,3.1c0.5,0.8,1.1,1.5,1.9,2
		s1.7,0.9,2.8,1.1c1.1,0.2,2.2,0.3,3.3,0.3c2.5,0,4.6-0.3,6.3-1c1.8-0.7,3.2-1.5,4.3-2.5c1.1-1,1.9-2.1,2.5-3.3s0.8-2.3,0.8-3.4
		V130.3z"/>
	<path id="XMLID_26_" fill="#767676" d="M521.6,108.4v7.2h0.2c3.1-5.5,8-8.2,14.7-8.2c3,0,5.5,0.4,7.4,1.2c2,0.8,3.6,2,4.8,3.4
		c1.2,1.5,2.1,3.2,2.6,5.2c0.5,2,0.7,4.2,0.7,6.7v29.8h-7.4V123c0-2.8-0.8-5-2.5-6.7c-1.6-1.6-3.9-2.5-6.7-2.5
		c-2.3,0-4.2,0.3-5.9,1.1c-1.7,0.7-3,1.7-4.2,3c-1.1,1.3-1.9,2.8-2.5,4.5c-0.6,1.7-0.8,3.6-0.8,5.6v25.6h-7.4v-45.3H521.6z"/>
	<path id="XMLID_28_" fill="#767676" d="M597.2,166.4c-3.4,3.7-8.7,5.5-15.9,5.5c-2.1,0-4.2-0.2-6.4-0.7c-2.2-0.5-4.2-1.2-6-2.3
		c-1.8-1-3.3-2.4-4.4-4.1c-1.2-1.7-1.8-3.8-1.9-6.2h7.4c0.1,1.3,0.5,2.5,1.3,3.4c0.8,0.9,1.8,1.7,2.9,2.3c1.1,0.6,2.4,1,3.7,1.3
		c1.3,0.3,2.6,0.4,3.9,0.4c2.5,0,4.5-0.4,6.2-1.3c1.7-0.8,3.1-2,4.2-3.5c1.1-1.5,1.9-3.3,2.4-5.4c0.5-2.1,0.7-4.4,0.7-6.9v-3h-0.2
		c-1.3,2.8-3.2,4.9-5.8,6.2c-2.6,1.3-5.4,2-8.3,2c-3.4,0-6.3-0.6-8.8-1.8c-2.5-1.2-4.6-2.9-6.3-4.9c-1.7-2.1-3-4.5-3.8-7.3
		c-0.8-2.8-1.3-5.7-1.3-8.8c0-2.7,0.3-5.4,1-8.3c0.7-2.8,1.9-5.4,3.5-7.7c1.6-2.3,3.8-4.2,6.5-5.7c2.7-1.5,6-2.2,9.9-2.2
		c2.9,0,5.5,0.6,7.9,1.9c2.4,1.3,4.3,3.1,5.6,5.6h0.1v-6.5h7v41.4C602.3,157.2,600.6,162.8,597.2,166.4z M587.7,146.1
		c1.7-1,3.1-2.4,4.2-4c1.1-1.7,1.8-3.5,2.3-5.6c0.5-2.1,0.7-4.2,0.7-6.3c0-2-0.2-3.9-0.7-5.9c-0.5-1.9-1.2-3.7-2.2-5.2
		c-1-1.5-2.3-2.8-4-3.7c-1.6-0.9-3.6-1.4-6-1.4c-2.4,0-4.4,0.5-6.1,1.4c-1.7,0.9-3.1,2.1-4.2,3.6c-1.1,1.5-1.9,3.3-2.4,5.3
		c-0.5,2-0.7,4.1-0.7,6.2c0,2,0.2,4.1,0.6,6.1c0.4,2,1.1,3.9,2.1,5.6c1,1.7,2.3,3,3.9,4c1.6,1,3.7,1.5,6.1,1.5
		S586,147.1,587.7,146.1z"/>
	<path id="XMLID_31_" fill="#767676" d="M645.6,150.8c-3.4,2.6-7.6,3.9-12.8,3.9c-3.6,0-6.8-0.6-9.4-1.8c-2.7-1.2-4.9-2.8-6.7-4.9
		c-1.8-2.1-3.2-4.6-4.1-7.5c-0.9-2.9-1.4-6.1-1.5-9.5c0-3.4,0.5-6.6,1.6-9.5c1.1-2.9,2.5-5.3,4.4-7.4c1.9-2.1,4.1-3.7,6.7-4.9
		c2.6-1.2,5.4-1.8,8.5-1.8c4,0,7.4,0.8,10,2.5s4.8,3.8,6.4,6.3c1.6,2.6,2.7,5.4,3.3,8.4c0.6,3,0.9,5.9,0.7,8.7h-33.9
		c-0.1,2,0.2,3.9,0.7,5.6c0.5,1.8,1.4,3.4,2.5,4.7c1.2,1.4,2.7,2.5,4.5,3.3c1.8,0.8,3.9,1.2,6.4,1.2c3.2,0,5.7-0.7,7.7-2.2
		c2-1.5,3.3-3.7,4-6.7h7.4C651.1,144.4,648.9,148.2,645.6,150.8z M643.8,121.7c-0.7-1.6-1.6-2.9-2.7-4.1c-1.1-1.1-2.5-2-4-2.7
		c-1.5-0.7-3.3-1-5.1-1c-1.9,0-3.7,0.3-5.2,1c-1.5,0.7-2.9,1.6-4,2.8c-1.1,1.2-2,2.5-2.6,4.1c-0.6,1.5-1,3.2-1.1,4.9h26
		C644.8,124.9,644.4,123.3,643.8,121.7z"/>
	<path id="XMLID_34_" fill="#767676" d="M713.5,91.2c6.3,0,11.1,1.6,14.3,4.9c3.2,3.2,4.9,7.8,4.9,13.6c0,5.8-1.6,10.4-4.9,13.7
		c-3.2,3.3-8,4.9-14.3,4.8h-19.1v25.6h-8.3V91.2H713.5z M710.7,121.1c4.7,0.1,8.2-0.9,10.4-2.9c2.2-2,3.3-4.8,3.3-8.6
		c0-3.7-1.1-6.6-3.3-8.5c-2.2-2-5.6-2.9-10.4-2.9h-16.3v22.9H710.7z"/>
	<path id="XMLID_37_" fill="#767676" d="M748.3,108.4v9.5h0.2c1.8-3.7,4-6.4,6.7-8.1s6-2.6,10-2.5v7.9c-3,0-5.5,0.4-7.6,1.2
		c-2.1,0.8-3.8,2-5.1,3.6c-1.3,1.6-2.2,3.5-2.8,5.7c-0.6,2.2-0.9,4.8-0.9,7.7v20.1h-7.4v-45.3H748.3z"/>
	<path id="XMLID_39_" fill="#767676" d="M768.1,121.7c0.9-2.9,2.3-5.4,4.2-7.5c1.9-2.1,4.2-3.8,6.9-5c2.7-1.2,5.9-1.8,9.5-1.8
		c3.6,0,6.8,0.6,9.5,1.8c2.7,1.2,5,2.9,6.9,5c1.9,2.1,3.3,4.6,4.2,7.5s1.4,6,1.4,9.3s-0.5,6.4-1.4,9.3c-0.9,2.9-2.3,5.4-4.2,7.5
		c-1.9,2.1-4.2,3.8-6.9,5c-2.7,1.2-5.9,1.8-9.5,1.8c-3.6,0-6.7-0.6-9.5-1.8c-2.7-1.2-5-2.9-6.9-5c-1.9-2.1-3.3-4.6-4.2-7.5
		c-0.9-2.9-1.4-6-1.4-9.3S767.2,124.6,768.1,121.7z M775.7,138.4c0.7,2.1,1.7,3.9,3,5.3c1.3,1.4,2.8,2.5,4.5,3.3
		c1.7,0.8,3.5,1.1,5.5,1.1s3.7-0.4,5.5-1.1c1.7-0.8,3.2-1.9,4.5-3.3c1.3-1.4,2.3-3.2,3-5.3c0.7-2.1,1.1-4.6,1.1-7.3
		c0-2.7-0.4-5.2-1.1-7.3c-0.7-2.1-1.7-3.9-3-5.4c-1.3-1.5-2.8-2.6-4.5-3.3c-1.7-0.8-3.5-1.1-5.5-1.1s-3.8,0.4-5.5,1.1
		c-1.7,0.8-3.2,1.9-4.5,3.3c-1.3,1.5-2.3,3.3-3,5.4c-0.7,2.1-1.1,4.6-1.1,7.3C774.6,133.8,774.9,136.2,775.7,138.4z"/>
</g>
<g id="XMLID_1_">
</g>
<g id="XMLID_42_">
</g>
<g id="XMLID_43_">
</g>
<g id="XMLID_44_">
</g>
<g id="XMLID_45_">
</g>
<g id="XMLID_46_">
</g>
</svg>
