<?xml version="1.0" encoding="utf-8"?>
<!-- Generator: Adobe Illustrator 19.0.0, SVG Export Plug-In . SVG Version: 6.00 Build 0)  -->
<svg version="1.2" baseProfile="tiny" id="Layer_1" xmlns="http://www.w3.org/2000/svg" xmlns:xlink="http://www.w3.org/1999/xlink"
	 x="0px" y="0px" viewBox="0 0 814.4 208" xml:space="preserve">
<g id="XMLID_19_">
	<path id="XMLID_25_" fill="none" d="M425.5,132.4c0-12.7-8.4-21.1-18.6-21.1c-10.2,0-18.7,8.3-18.7,21.1v0.3
		c0,12.7,8.6,21.1,18.7,21.1c10.2,0,18.6-8.4,18.6-21.1V132.4z"/>
	<path id="XMLID_38_" fill="#767676" d="M447,170.7V66.7h-21.7v37.6c-5.1-6.1-12.3-11.4-23.9-11.4c-18.2,0-34.9,14-34.9,39.5v0.3
		c0,25.5,17,39.5,34.9,39.5c11.3,0,18.6-5.3,23.9-12.4v11H447z M406.9,153.8c-10.2,0-18.7-8.4-18.7-21.1v-0.3
		c0-12.8,8.6-21.1,18.7-21.1c10.2,0,18.6,8.4,18.6,21.1v0.3C425.5,145.4,417.1,153.8,406.9,153.8z"/>
</g>
<g id="XMLID_18_">
	<path id="XMLID_23_" fill="none" d="M565.2,108.1c-9,0-14.8,6.5-16.5,16.4h32.6C580.1,114.7,574.4,108.1,565.2,108.1z"/>
	<path id="XMLID_33_" fill="#767676" d="M602.4,132.8v-0.3c0-21.9-11.7-42-37.2-42c-22.2,0-37.8,18.2-37.8,40.3v0.3
		c0,23.7,17,40,39.9,40c13.8,0,24.1-5.5,31.2-14.4l-12.4-11.1c-6,5.6-11.3,7.9-18.5,7.9c-9.7,0-16.5-5.2-18.7-15.1h53.1
		C602.3,136.2,602.4,134.9,602.4,132.8z M548.7,124.5c1.7-10,7.6-16.4,16.5-16.4c9.1,0,14.8,6.6,16.1,16.4H548.7z"/>
</g>
<path id="XMLID_14_" fill="#767676" d="M724.1,154c-7,0-15.6-3.2-23.7-9.3l-9.1,14.5c10,8.1,21.8,11.8,32.3,11.8
	c16.3,0,28.8-7.8,28.8-25.1v-0.3c0-14.2-12.2-19.5-22.7-23.1c-8.1-2.9-15.3-4.9-15.3-9.3v-0.3c0-3.1,2.7-5.4,7.9-5.4
	c5.5,0,12.9,2.8,20.4,7.3l8.1-15.3c-8.1-5.7-18.5-9-28.1-9c-15.2,0-27.5,8.9-27.5,24.7v0.3c0,15.1,11.9,20.2,22.5,23.4
	c8.3,2.6,15.6,4.2,15.6,9v0.3C733.1,151.7,730.3,154,724.1,154z"/>
<path id="XMLID_13_" fill="#767676" d="M91.2,153.9c-7,0-15.6-3.2-23.7-9.3l-9.1,14.5c10,8.1,21.8,11.8,32.3,11.8
	c16.3,0,28.8-7.8,28.8-25.1v-0.3c0-14.2-12.2-19.5-22.7-23.1c-8.1-2.9-15.3-4.9-15.3-9.3v-0.3c0-3.1,2.7-5.4,7.9-5.4
	c5.5,0,12.9,2.8,20.4,7.3l8.1-15.3c-8.1-5.7-18.5-9-28.1-9c-15.2,0-27.5,8.9-27.5,24.7v0.3c0,15.1,11.9,20.2,22.5,23.4
	c8.3,2.6,15.6,4.2,15.6,9v0.3C100.2,151.6,97.4,153.9,91.2,153.9z"/>
<g id="XMLID_20_">
	<polygon id="XMLID_26_" fill="none" points="792.1,185.4 792.1,118.3 792.1,51.2 723.4,51.2 654.8,51.2 654.8,118.3 654.8,185.4 
		723.4,185.4 	"/>
	<polygon id="XMLID_29_" fill="none" points="337.9,51.2 337.9,118.3 337.9,185.4 407.2,185.4 476.5,185.4 476.5,118.3 476.5,51.2 
		407.2,51.2 	"/>
	<polygon id="XMLID_30_" fill="none" points="498.3,118.3 498.3,185.4 565.6,185.4 633,185.4 633,118.3 633,51.2 565.6,51.2 
		498.3,51.2 	"/>
	<path id="XMLID_148_" fill="#767676" d="M194.2,29.4v10.9v10.9h60.9h60.9v67.1v67.1h-63.5h-63.5h-83.4H22.3v-67.1V51.2H82h59.7
		V40.3V29.4H71.1H0.5v75v13.9v88.8h406.7h406.7v-88.8v-13.9v-75H504.1H194.2z M476.5,118.3v67.1h-69.3h-69.3v-67.1V51.2h69.3h69.3
		V118.3z M654.8,118.3V51.2h68.6h68.6v67.1v67.1h-68.6h-68.6V118.3z M633,51.2v67.1v67.1h-67.4h-67.4v-67.1V51.2h67.4H633z"/>
</g>
<rect id="XMLID_17_" x="238" y="65.5" fill="#767676" width="22.2" height="19.4"/>
<rect id="XMLID_16_" x="238" y="93.3" fill="#767676" width="22.2" height="77.7"/>
<polygon id="XMLID_15_" fill="#767676" points="156.5,170.9 178.7,170.9 178.7,160.3 178.7,1.6 156.5,1.6 156.5,160.3 "/>
</svg>
